<?xml version="1.0" standalone="no"?>
<!DOCTYPE svg PUBLIC "-//W3C//DTD SVG 20010904//EN"
 "http://www.w3.org/TR/2001/REC-SVG-20010904/DTD/svg10.dtd">
<svg version="1.0" xmlns="http://www.w3.org/2000/svg"
 width="1024.000000pt" height="768.000000pt" viewBox="0 0 1024.000000 768.000000"
 preserveAspectRatio="xMidYMid meet">

<g transform="translate(0.000000,768.000000) scale(0.100000,-0.100000)"
fill="#000000" stroke="none">
<path d="M0 3840 l0 -3840 5120 0 5120 0 0 3840 0 3840 -5120 0 -5120 0 0
-3840z m6545 3360 c147 -71 226 -248 181 -404 -76 -261 -388 -340 -570 -146
-63 67 -88 127 -94 220 -7 121 47 234 143 300 72 49 110 60 205 57 65 -2 97
-9 135 -27z m-1204 -73 c87 -39 199 -116 230 -158 31 -44 34 -96 10 -144 -28
-52 -16 -63 47 -46 130 37 227 37 308 2 60 -27 158 -95 215 -150 46 -45 49
-50 49 -99 0 -73 -33 -107 -168 -173 -59 -29 -136 -70 -172 -92 -103 -63 -250
-171 -246 -182 6 -19 72 -8 157 25 112 43 199 45 283 7 82 -38 224 -125 268
-165 36 -32 38 -38 38 -93 0 -63 -4 -71 -111 -184 -66 -71 -119 -153 -119
-185 0 -15 7 -44 15 -63 8 -20 15 -66 15 -102 0 -115 -35 -132 -295 -145 -93
-5 -178 -11 -187 -15 -24 -10 -23 -26 8 -73 l26 -40 35 24 c42 28 97 31 191 9
132 -31 265 -124 314 -220 38 -73 33 -227 -9 -292 -8 -12 -34 -32 -58 -43 -53
-26 -88 -19 -172 32 -83 50 -232 258 -274 382 -32 93 -56 62 -88 -110 -27
-142 -38 -372 -21 -434 16 -60 66 -105 138 -126 83 -25 452 -24 537 1 88 25
151 93 216 233 87 188 103 217 128 229 28 13 68 0 75 -26 12 -44 16 -76 26
-186 6 -66 23 -165 36 -220 53 -206 53 -243 4 -299 -60 -68 -225 -128 -453
-167 -111 -18 -155 -20 -325 -16 -203 5 -221 8 -376 63 -119 42 -241 133 -291
218 -54 92 -65 146 -65 317 0 108 5 176 15 216 17 64 20 150 6 172 -14 22 -37
-1 -73 -72 -32 -65 -192 -264 -272 -340 -133 -125 -317 -252 -440 -302 -44
-18 -78 -48 -66 -57 3 -2 131 -45 285 -96 288 -94 532 -164 639 -182 34 -6 97
-17 141 -24 207 -37 267 -46 365 -51 58 -3 125 -10 150 -15 60 -12 202 -12
325 1 55 5 177 16 270 24 94 8 217 20 275 26 58 6 158 9 222 7 107 -3 118 -5
142 -27 29 -28 34 -67 12 -109 -64 -121 -452 -324 -831 -434 l-110 -32 -240
-1 c-275 0 -231 -9 -585 117 -346 123 -701 271 -1130 470 -430 200 -451 208
-570 208 -81 0 -93 -3 -161 -37 -41 -20 -98 -52 -128 -71 -145 -93 -241 -109
-343 -59 -69 34 -145 101 -187 164 -66 99 -35 126 204 183 95 22 101 24 314
90 l134 42 -5 66 c-3 37 -15 92 -26 122 -92 250 -86 228 -86 345 0 78 7 138
23 205 12 52 25 112 28 133 6 44 -1 46 -78 21 -62 -20 -147 -15 -212 14 -57
25 -153 117 -163 156 -16 66 24 94 226 158 94 30 159 58 215 92 197 122 213
123 394 34 151 -76 221 -136 221 -192 0 -59 -18 -88 -109 -176 -142 -138 -197
-261 -189 -419 5 -76 11 -99 52 -190 62 -136 71 -188 52 -287 -8 -42 -12 -83
-9 -90 3 -7 28 -22 56 -33 29 -10 81 -30 117 -44 36 -13 73 -21 82 -18 10 3
45 38 79 76 34 39 110 120 169 180 262 270 369 405 479 602 39 69 13 94 -50
48 -106 -78 -164 -77 -222 3 -19 26 -75 133 -125 237 -151 318 -170 358 -207
425 -66 122 -34 164 133 174 243 15 637 87 692 126 30 21 183 215 259 328 55
81 53 105 -9 112 -25 3 -55 11 -67 18 -53 29 -71 19 -203 -116 -131 -135 -232
-216 -365 -297 -146 -88 -209 -105 -255 -67 l-23 18 25 51 c14 27 55 90 90
139 144 199 310 458 367 573 47 94 67 154 81 249 11 80 30 125 57 141 38 22
125 12 204 -22z m-1686 -463 c229 -62 342 -133 396 -249 26 -54 29 -71 29
-160 0 -85 -4 -108 -24 -152 -41 -87 -110 -105 -207 -55 -57 29 -419 314 -481
379 -54 56 -78 109 -78 169 0 46 4 55 31 78 28 24 39 26 117 26 69 0 115 -8
217 -36z m4077 -3671 c11 -10 18 -30 18 -55 0 -23 5 -39 13 -40 6 -1 109 -2
227 -2 198 -1 218 -3 250 -22 51 -30 80 -78 80 -133 0 -51 -13 -71 -45 -71
-29 0 -45 19 -45 54 0 17 -9 40 -22 53 -21 23 -23 23 -274 23 -192 0 -254 3
-262 13 -16 19 -18 163 -2 182 16 20 39 19 62 -2z m-5388 -22 c13 -14 16 -28
11 -50 l-7 -31 292 0 c182 0 299 -4 311 -10 26 -15 24 -45 -10 -128 l-30 -72
44 -19 c70 -31 85 -65 85 -191 0 -122 -15 -163 -70 -192 -30 -16 -60 -18 -221
-18 l-186 0 -39 -65 c-52 -91 -128 -172 -218 -234 -80 -55 -106 -59 -126 -21
-15 27 -3 47 49 82 91 63 211 191 211 227 0 5 -42 11 -94 13 -84 3 -97 6 -121
28 -46 43 -55 72 -55 175 0 112 16 156 64 186 28 17 55 19 302 19 l272 0 21
49 c11 27 21 54 21 60 0 8 -94 11 -298 11 -218 0 -301 3 -310 12 -17 17 -15
50 9 110 29 77 60 96 93 59z m-290 -13 c11 -16 16 -46 16 -98 0 -82 -16 -120
-50 -120 -39 0 -50 26 -50 116 0 47 5 94 10 105 14 26 55 24 74 -3z m3860 -20
c10 -16 7 -28 -21 -105 -4 -10 67 -13 334 -13 358 0 363 -1 363 -46 0 -54 0
-54 -408 -54 -326 0 -381 2 -400 16 -12 8 -22 21 -22 28 0 15 67 165 83 184
14 17 57 11 71 -10z m-1124 -8 c24 -24 25 -43 4 -64 -13 -14 -50 -16 -250 -16
l-234 0 0 -475 0 -475 263 0 c276 0 287 -2 287 -44 -1 -51 2 -51 -320 -51
-287 0 -302 1 -316 19 -12 17 -14 104 -14 523 l0 503 -239 0 c-204 0 -242 2
-255 16 -9 8 -16 21 -16 28 0 16 21 42 40 49 8 3 243 6 523 6 494 1 508 0 527
-19z m2790 -42 c30 -16 37 -50 15 -72 -14 -14 -43 -16 -193 -16 -198 0 -215
-5 -227 -63 -13 -62 -16 -67 -44 -67 -15 0 -32 5 -39 12 -18 18 -14 84 8 128
38 75 67 83 320 88 97 2 142 -1 160 -10z m-1952 -26 c16 -20 18 -1042 2 -1073
-12 -22 -62 -26 -79 -6 -7 10 -12 154 -13 473 l-3 459 -51 -47 c-34 -32 -60
-48 -77 -48 -30 0 -52 31 -41 58 3 9 53 61 109 115 106 100 122 107 153 69z
m-3568 -238 c6 -15 10 -173 10 -377 0 -346 0 -351 22 -374 l21 -23 482 0 c361
0 484 -3 493 -12 7 -7 12 -25 12 -40 0 -21 -6 -31 -26 -38 -32 -13 -915 -13
-968 0 -54 12 -87 38 -113 90 -23 43 -23 51 -23 403 0 228 4 365 10 378 16 30
68 26 80 -7z m3968 4 c7 -7 12 -40 12 -80 l0 -68 235 0 c259 0 285 -5 285 -51
0 -18 -7 -32 -19 -39 -12 -6 -114 -10 -261 -10 l-241 0 3 -142 3 -143 252 -3
c245 -2 253 -3 264 -23 8 -16 8 -28 0 -45 l-10 -24 -253 -2 -253 -3 -2 -90
c-2 -49 -5 -100 -8 -112 -6 -27 -37 -38 -65 -23 -20 11 -20 18 -20 428 0 440
0 442 45 442 12 0 26 -5 33 -12z m2220 -10 c7 -7 12 -21 12 -33 0 -45 -1 -45
-461 -45 l-438 0 -11 -57 c-6 -32 -16 -74 -21 -93 -5 -19 -9 -38 -9 -42 0 -5
175 -8 389 -8 299 0 391 3 399 13 5 6 13 31 17 55 5 33 12 43 31 48 34 9 52
-1 60 -31 17 -67 -36 -156 -104 -175 -20 -5 -110 -10 -200 -10 l-163 0 3 -67
3 -68 247 -3 c226 -2 248 -4 257 -20 7 -12 6 -26 -2 -43 l-13 -24 -247 -3
-247 -2 0 -80 0 -80 261 0 c160 0 268 -4 280 -10 22 -12 26 -59 7 -78 -9 -9
-93 -12 -314 -12 -363 0 -334 -13 -334 152 l0 108 -243 0 c-176 0 -246 3 -255
12 -16 16 -15 53 1 67 9 7 97 12 253 13 l239 3 3 68 3 67 -205 0 c-173 0 -207
2 -220 16 -20 19 -21 10 9 150 14 65 25 121 25 125 0 5 -24 9 -52 11 -47 3
-54 6 -62 30 -21 60 -37 58 553 58 404 0 540 -3 549 -12z m-5508 -485 c3 -46
11 -87 19 -97 11 -13 35 -16 148 -16 74 0 143 -5 154 -10 27 -15 26 -66 -2
-81 -14 -7 -71 -10 -164 -7 -159 3 -176 9 -222 78 -19 28 -23 46 -23 116 0 73
3 85 21 98 14 9 29 12 43 7 18 -7 22 -18 26 -88z m238 71 c16 -11 22 -25 22
-55 0 -56 -15 -79 -50 -79 -35 0 -38 5 -46 63 -5 37 -3 48 15 66 25 25 30 26
59 5z m1161 -318 c7 -8 11 -27 9 -43 l-3 -28 -237 -3 c-231 -2 -237 -2 -248
18 -9 17 -8 27 5 46 l15 24 224 0 c182 0 226 -3 235 -14z m3477 -73 c15 -57
10 -58 -262 -58 l-249 0 -9 27 c-20 56 -10 58 265 58 l249 0 6 -27z m-5263
-344 c15 -29 53 -109 85 -177 l57 -123 74 171 c41 94 80 175 88 181 20 17 43
3 43 -26 0 -28 -144 -359 -168 -387 -18 -22 -55 -23 -75 -4 -19 19 -177 361
-177 384 0 21 20 44 35 39 5 -2 23 -28 38 -58z m795 49 c7 -7 12 -33 12 -58 0
-48 -13 -70 -41 -70 -21 0 -29 20 -29 74 0 41 13 66 35 66 6 0 16 -5 23 -12z
m1306 -7 c20 -17 21 -45 2 -60 -10 -9 -31 -9 -79 -1 -65 10 -146 2 -186 -20
-26 -14 -54 -87 -47 -125 8 -43 53 -86 150 -144 93 -57 148 -110 171 -163 19
-47 20 -150 1 -187 -41 -78 -141 -120 -259 -107 -83 8 -105 15 -110 36 -10 39
7 45 127 45 100 0 118 3 143 21 41 30 56 68 48 120 -9 60 -42 96 -160 172
-145 94 -175 135 -175 234 1 92 42 156 117 184 49 18 233 15 257 -5z m2256 -1
c7 -12 9 -149 8 -401 -3 -344 -5 -383 -20 -392 -12 -8 -21 -7 -32 2 -14 12
-16 60 -16 400 0 393 2 411 37 411 7 0 17 -9 23 -20z m448 8 c13 -13 16 -85 6
-112 -7 -19 -35 -21 -52 -4 -7 7 -12 29 -12 51 0 64 28 95 58 65z m-2104 -54
c11 -29 6 -100 -8 -120 -34 -44 -70 37 -51 113 6 27 49 32 59 7z m-1906 -146
c9 -9 12 -88 12 -294 0 -155 -3 -289 -6 -298 -7 -19 -35 -21 -52 -4 -16 16
-17 560 -2 589 12 22 30 25 48 7z m3447 2 c21 -8 26 -16 23 -38 -3 -25 -6 -27
-63 -32 -33 -3 -70 -11 -82 -18 -59 -33 -90 -251 -50 -354 25 -66 57 -88 122
-88 61 0 81 -16 71 -56 -7 -26 -8 -26 -76 -22 -77 4 -109 21 -148 78 -36 53
-47 107 -47 225 0 126 19 202 62 253 43 51 128 75 188 52z m564 -4 c8 -9 11
-99 9 -307 l-3 -294 -25 0 -25 0 -3 299 c-2 233 1 301 10 308 18 11 24 10 37
-6z m-1529 -15 c6 -12 10 -107 10 -239 0 -207 1 -221 21 -246 22 -28 53 -33
122 -17 29 7 41 6 52 -6 36 -35 10 -61 -78 -76 -56 -9 -68 -8 -102 9 -74 36
-80 58 -83 318 -2 126 -1 240 2 253 8 28 41 31 56 4z m315 -280 c0 -267 -2
-295 -17 -305 -40 -25 -43 0 -42 294 1 153 4 286 8 295 3 10 15 15 28 13 l23
-3 0 -294z m1914 279 c78 -39 106 -130 99 -316 -6 -175 -43 -243 -146 -269
-87 -23 -178 10 -212 76 -29 55 -43 160 -37 268 10 189 64 260 200 261 38 0
71 -7 96 -20z m-2684 -45 l0 -30 -145 0 -145 0 -3 24 c-6 41 14 46 159 41
l134 -5 0 -30z m-125 -94 c5 -11 10 -86 10 -173 0 -180 5 -195 73 -200 35 -3
43 -7 45 -26 11 -76 -113 -65 -165 15 -15 23 -19 54 -21 191 -2 90 -1 175 2
188 8 29 41 32 56 5z m-2529 -146 c9 -39 11 -253 3 -282 -7 -27 -32 -37 -50
-22 -11 9 -14 46 -14 159 0 82 3 156 6 165 11 27 48 14 55 -20z"/>
<path d="M6343 7200 c-92 -19 -172 -78 -219 -162 -26 -48 -29 -61 -29 -148 0
-84 3 -101 27 -145 32 -60 87 -114 148 -146 37 -20 60 -24 130 -24 70 0 93 4
130 24 186 97 238 328 110 490 -66 83 -194 131 -297 111z m-89 -114 c-16 -13
-17 -18 -6 -33 56 -80 66 -104 31 -75 -48 40 -63 122 -22 122 14 0 14 -2 -3
-14z m75 -64 c0 -11 -4 -9 -10 8 -6 13 -15 32 -22 40 -7 9 -2 5 11 -8 12 -13
22 -31 21 -40z m-157 46 c-18 -18 -14 -52 9 -84 l21 -29 -26 28 c-14 15 -26
36 -26 47 0 27 11 50 23 50 7 0 7 -4 -1 -12z m217 -132 c-3 -3 -11 5 -18 17
-13 21 -12 21 5 5 10 -10 16 -20 13 -22z m-136 7 c-8 -3 -13 -22 -13 -47 0
-23 6 -48 13 -56 10 -12 9 -12 -5 -1 -13 10 -18 27 -18 62 0 40 3 49 18 48 10
0 12 -3 5 -6z m387 -44 c0 -11 -6 -22 -13 -25 -8 -3 -11 -18 -9 -42 1 -20 -4
-57 -12 -82 -9 -25 -13 -34 -11 -20 17 83 17 120 0 147 -10 15 -12 22 -4 16
23 -22 42 -16 37 12 -3 13 -1 22 3 19 5 -3 9 -14 9 -25z m-201 -5 c7 9 18 16
24 16 5 0 -7 -13 -28 -30 -21 -16 -39 -30 -41 -30 -1 0 3 14 9 30 9 23 13 26
17 14 5 -15 7 -15 19 0z m-126 -71 c-7 -2 -21 -2 -30 0 -10 3 -4 5 12 5 17 0
24 -2 18 -5z m37 -65 c0 -9 -4 -19 -9 -22 -4 -3 -6 5 -4 18 3 13 0 27 -6 30
-6 4 -11 12 -11 19 0 18 29 -26 30 -45z m123 -9 c-4 -4 -9 6 -10 24 -1 30 -1
31 8 8 5 -14 6 -28 2 -32z m-73 -46 c-11 -17 -11 -17 -6 0 3 10 6 24 7 30 0 9
2 9 5 0 3 -7 0 -20 -6 -30z m-87 7 c-3 -12 -8 -19 -11 -16 -5 6 5 36 12 36 2
0 2 -9 -1 -20z m207 10 c0 -5 -12 -10 -27 -9 l-28 1 25 8 c14 4 26 8 28 9 1 1
2 -3 2 -9z m-63 -42 c-3 -7 -5 -2 -5 12 0 14 2 19 5 13 2 -7 2 -19 0 -25z
m147 7 c-4 -8 -11 -15 -16 -15 -6 0 -5 6 2 15 7 8 14 15 16 15 2 0 1 -7 -2
-15z m-236 -2 c-10 -2 -26 -2 -35 0 -10 3 -2 5 17 5 19 0 27 -2 18 -5z m175
-20 c-13 -2 -33 -2 -45 0 -13 2 -3 4 22 4 25 0 35 -2 23 -4z"/>
<path d="M6260 7010 c6 -11 13 -20 16 -20 2 0 0 9 -6 20 -6 11 -13 20 -16 20
-2 0 0 -9 6 -20z"/>
<path d="M5183 7100 c-23 -10 -28 -24 -56 -170 -27 -141 -101 -273 -395 -706
-156 -229 -148 -234 108 -66 92 59 146 106 267 228 84 84 161 155 172 159 11
3 57 -5 101 -19 45 -15 98 -26 118 -26 51 0 66 -13 65 -53 -1 -46 -31 -101
-122 -226 -42 -58 -94 -133 -116 -165 -22 -32 -58 -78 -81 -101 -46 -47 -51
-49 -354 -106 -110 -21 -214 -34 -314 -38 -126 -6 -150 -10 -161 -25 -17 -23
-20 -15 82 -236 131 -284 209 -442 233 -472 26 -34 69 -37 96 -7 29 32 86 58
165 74 80 17 109 13 109 -15 0 -46 -167 -319 -294 -480 -44 -56 -329 -367
-390 -425 -53 -51 -96 -107 -90 -116 11 -18 57 -3 187 60 71 35 165 91 222
134 105 78 313 283 382 377 75 103 152 245 183 339 34 104 44 121 71 121 34 0
38 -29 19 -165 -19 -136 -38 -536 -31 -665 4 -94 30 -165 82 -224 131 -149
472 -229 774 -182 50 8 117 17 150 21 130 15 281 63 356 112 41 27 41 27 36
82 -2 31 -15 101 -29 156 -14 55 -29 138 -33 185 -13 178 -38 202 -84 84 -66
-169 -145 -280 -230 -321 l-56 -28 -275 -3 -275 -3 -67 26 c-82 32 -120 73
-143 150 -27 94 -29 150 -11 274 15 97 54 308 73 387 6 25 -34 67 -79 84 -15
5 -42 15 -59 22 -41 15 -59 34 -59 63 0 34 27 45 112 46 40 0 111 4 158 9 47
4 150 13 230 20 80 7 151 17 158 23 21 17 13 75 -18 130 -16 30 -30 63 -30 75
0 24 89 144 189 255 100 109 97 119 -46 211 -172 111 -253 129 -369 82 -71
-29 -236 -66 -319 -73 -47 -4 -64 -2 -74 10 -18 22 -7 37 74 105 154 129 270
205 510 334 157 84 164 98 85 172 -31 28 -89 71 -130 96 -73 44 -76 45 -160
45 -47 -1 -101 -6 -120 -13 -49 -18 -246 -45 -274 -38 -29 7 -41 33 -24 54 7
8 31 26 53 40 64 39 95 73 95 103 0 52 -87 129 -218 194 -74 36 -92 40 -129
25z m658 -1290 c18 -24 18 -29 0 -168 -22 -158 -30 -176 -90 -191 -58 -15
-279 -41 -295 -35 -30 11 -27 42 9 106 48 89 49 141 0 188 -36 35 -44 60 -22
78 6 5 50 17 96 26 46 8 86 18 89 21 3 3 49 4 100 3 88 -3 96 -5 113 -28z
m-632 -89 c18 -33 -22 -284 -60 -383 -14 -35 -54 -49 -164 -55 -80 -5 -92 -3
-107 14 -10 10 -41 92 -70 181 -46 144 -50 164 -37 177 14 14 49 22 274 61 50
9 92 18 94 20 13 12 61 2 70 -15z"/>
<path d="M5635 5756 c-73 -18 -74 -19 -68 -79 4 -35 0 -73 -11 -111 -10 -32
-15 -61 -12 -64 3 -3 45 0 92 5 61 8 92 16 105 30 26 25 56 197 39 218 -15 18
-75 18 -145 1z"/>
<path d="M4985 5630 c-128 -27 -138 -33 -130 -73 15 -74 46 -167 63 -187 17
-21 24 -22 76 -16 82 11 102 32 126 134 23 96 25 133 8 150 -16 16 -35 14
-143 -8z"/>
<path d="M3685 5532 c-27 -16 -81 -48 -120 -70 -61 -36 -227 -96 -323 -117
-43 -9 -59 -38 -38 -70 23 -34 131 -85 182 -85 23 0 89 11 145 25 149 36 158
27 114 -119 -76 -253 -81 -380 -20 -536 87 -224 107 -337 67 -373 -24 -22
-303 -110 -496 -157 -87 -21 -163 -43 -168 -48 -23 -23 70 -119 155 -162 100
-50 149 -42 303 51 45 27 113 64 150 82 65 30 75 32 179 32 103 -1 116 -3 200
-37 89 -36 387 -168 645 -288 415 -192 1005 -416 1199 -455 117 -24 396 -16
528 14 217 50 601 218 747 328 72 54 91 76 81 93 -9 15 -227 12 -335 -4 -271
-42 -630 -63 -839 -47 -187 13 -366 33 -456 50 -188 36 -326 64 -370 76 -146
38 -480 146 -635 205 -30 11 -122 44 -205 72 -138 46 -430 158 -465 177 -24
13 -23 48 1 123 28 88 23 158 -20 252 -51 114 -71 190 -71 278 0 173 60 300
209 442 128 121 122 136 -81 238 -133 66 -189 73 -263 30z"/>
<path d="M5797 5005 c-10 -25 49 -157 101 -228 68 -92 102 -126 154 -153 57
-29 98 -31 129 -5 22 18 24 27 23 104 -1 100 -16 134 -88 188 -100 76 -304
136 -319 94z"/>
<path d="M3355 6629 c-12 -19 -7 -75 9 -107 17 -34 127 -130 321 -282 226
-177 296 -192 324 -70 25 110 8 198 -52 266 -53 60 -106 95 -202 132 -150 59
-380 94 -400 61z"/>
<path d="M2288 2569 c-15 -8 -18 -25 -18 -104 0 -83 2 -96 19 -105 12 -6 133
-10 324 -10 360 0 337 -8 337 118 0 112 1 112 -165 112 l-133 0 -4 -66 c-5
-84 -34 -108 -78 -64 -15 15 -20 33 -20 75 l0 55 -122 0 c-68 0 -131 -5 -140
-11z"/>
<path d="M7716 1240 c-68 -21 -92 -83 -90 -235 2 -163 37 -220 133 -220 58 0
97 24 117 71 34 80 26 291 -12 349 -25 39 -86 53 -148 35z"/>
</g>
</svg>
